<svg width="97" height="32" viewBox="0 0 97 32" fill="none" xmlns="http://www.w3.org/2000/svg">
<path d="M44.5925 25.3482C43.6033 24.8771 42.7998 24.0889 42.3097 23.109C41.0687 20.1676 44.0737 9.59249 45.0415 4.63872C45.1667 4.08185 45.2386 3.75187 45.2442 3.72696C45.4434 2.79446 45.6357 1.27948 44.8457 0.551742C44.6035 0.340667 44.3187 0.184114 44.0106 0.092691C43.7026 0.00126808 43.3785 -0.0228942 43.0603 0.021842C42.3085 0.107523 41.5636 0.246227 40.8314 0.436908C40.8314 0.436908 35.228 11.5633 34.6691 13.1779C34.6234 12.9448 34.1516 6.81918 33.8659 5.88183C33.4668 4.6996 32.8823 3.46063 31.0498 3.34925C30.4175 3.28955 29.7797 3.35876 29.1749 3.55269C28.5702 3.74663 28.0111 4.06126 27.5314 4.47754C27.8773 4.49267 28.2122 4.60332 28.4991 4.79723C28.7859 4.99114 29.0134 5.26072 29.1564 5.57607C29.3805 6.42487 29.1211 7.06615 28.9488 8.10865C28.4265 11.3344 26.1126 24.4005 26.2246 26.5326C26.2862 27.7086 26.8756 31.1792 31.9304 29.6331C31.4546 29.216 31.0917 28.6856 30.8752 28.0911C30.6588 27.4965 30.5958 26.857 30.6921 26.2316C30.7675 23.6105 31.4987 19.4253 32.268 15.0817C32.9258 18.3738 33.4626 20.5653 33.4626 20.5653C33.4626 20.5653 33.628 21.3221 34.198 21.4612C34.8487 21.5518 35.5117 21.4576 36.1114 21.1893C36.194 19.9765 36.3933 18.7744 36.7064 17.5997C37.3179 14.9001 38.3129 12.302 39.6609 9.88441C39.6561 9.93076 39.6505 9.97573 39.645 10.0228C39.3925 12.1673 38.947 14.0973 38.5873 16.2293C38.2338 18.3219 37.623 20.4374 37.8955 22.5563C38.4365 26.7871 43.2982 25.8117 44.5925 25.3482ZM60.964 18.6699C63.0524 19.7145 65.4487 18.7391 67.147 17.4697C68.3043 16.6118 69.2917 15.5458 70.0586 14.3263C70.4356 15.4787 71.2492 16.4376 72.3249 16.9972C74.8312 18.3517 77.186 16.8533 78.564 15.6932C79.678 14.7458 80.5251 13.5236 81.0212 12.1479C81.6804 10.3991 82.0367 8.17089 80.8828 7.18235C80.4903 6.84721 79.9857 6.67269 79.4701 6.69372C78.9544 6.71476 78.4657 6.9298 78.1019 7.2958C79.6819 7.25776 79.4556 9.15252 79.0427 10.2061C78.4996 11.5896 76.5841 13.9416 74.8754 12.7975C73.4096 11.8138 74.4348 9.19473 75.1093 7.99243C75.6105 7.09321 76.3272 6.33254 77.195 5.77876C77.6863 5.48244 78.2471 5.32102 78.8208 5.31082C79.3945 5.30061 79.9606 5.44199 80.4622 5.72065C80.4622 5.72065 79.7213 2.37041 76.7073 2.91206C74.8598 3.31731 73.2159 4.36441 72.0676 5.8673C70.7488 7.56367 69.9505 9.60626 69.7695 11.7473C69.1774 12.4909 68.4866 13.1503 67.7163 13.7071C66.6302 14.5317 64.9077 15.5203 63.5782 14.5649C61.857 13.328 63.0427 9.62223 64.6552 7.94884C64.8578 7.73008 65.0848 7.53534 65.3318 7.36845C66.0928 6.89804 66.3432 7.38644 66.3432 7.68805C66.296 8.39153 66.0335 9.06345 65.5912 9.61254C65.567 9.64713 65.5407 9.68172 65.513 9.7177L65.7074 9.7516C65.9329 9.7516 68.8142 10.0331 68.7678 6.83855C68.7425 6.34953 68.6025 5.87332 68.3592 5.4484C68.1159 5.02347 67.7759 4.66175 67.367 4.39245C64.7279 2.6236 61.7166 5.40173 60.3635 7.3546C58.2564 10.3935 56.6895 16.5275 60.9605 18.663L60.964 18.6699ZM94.8261 22.357C93.4038 21.7158 87.3377 19.8238 76.4029 20.4387C73.173 20.62 70.0794 20.943 66.9395 21.4121C64.325 21.792 61.7437 22.3732 59.2186 23.1505C58.9966 23.2197 58.0115 23.5303 58.2785 24.9954C68.237 23.0002 78.4794 22.8721 88.4847 24.6177C90.6544 24.9685 92.799 25.46 94.905 26.0891C95.0537 25.6741 95.1381 25.4271 95.145 25.4063C95.4217 24.5963 95.9426 22.8599 94.8261 22.357ZM48.3322 31.9934C50.7375 32.1075 53.8201 30.7731 55.0383 25.9328C56.3485 20.7307 57.1136 8.93322 57.1212 8.7838C57.171 7.95022 57.1391 6.61164 56.3602 6.07621C55.8746 5.76277 55.289 5.64327 54.7194 5.7414C54.3043 5.79743 53.4839 5.97315 52.8447 6.14125C52.8675 6.22841 53.2881 16.9681 50.2706 19.6065C49.9717 19.8673 49.1229 20.0465 49.4529 19.0753C51.1969 13.9624 51.0052 11.371 50.5079 9.68656C50.0236 8.04429 47.049 6.44908 44.6825 9.26182C46.4873 9.23138 46.497 10.5969 46.5108 10.8467C46.4846 12.2262 46.3027 13.5984 45.9685 14.9371C45.4752 17.2407 44.616 20.9168 45.6917 22.2346C46.5834 23.3297 47.9054 23.2895 49.1907 22.7582C50.6534 22.0054 51.7913 20.7448 52.3909 19.2129C52.1701 21.5287 51.766 23.8234 51.1823 26.0753C51.0357 26.5789 50.4249 28.675 48.7494 29.2187C48.2587 29.4225 47.7107 29.4409 47.2075 29.2703C46.7043 29.0997 46.2804 28.7519 46.0148 28.2917C45.8993 28.7642 45.4614 31.4441 47.9939 31.9519C48.023 31.9567 48.2568 31.9899 48.3398 31.9934H48.3322ZM94.6324 19.0822H94.4373V19.3956H94.6283C94.6899 19.402 94.752 19.3884 94.8053 19.3568C94.8222 19.3409 94.8352 19.3213 94.8433 19.2996C94.8514 19.2779 94.8545 19.2547 94.8524 19.2316C94.8551 19.2096 94.8521 19.1872 94.8438 19.1666C94.8354 19.146 94.822 19.128 94.8047 19.114C94.7513 19.0878 94.6917 19.0772 94.6324 19.0822ZM94.6221 18.948C94.726 18.9396 94.8299 18.9638 94.9195 19.0172C94.9509 19.0433 94.9755 19.0766 94.9911 19.1144C95.0068 19.1521 95.0131 19.193 95.0094 19.2337C95.0163 19.2959 95.0001 19.3584 94.9638 19.4094C94.9276 19.4604 94.874 19.4964 94.813 19.5104L95.0509 19.8293H94.8558L94.6379 19.5346H94.4367V19.8293H94.2824V18.9466L94.6221 18.948ZM94.6221 18.6623C94.4773 18.6669 94.337 18.7141 94.2189 18.7979C94.1007 18.8817 94.0099 18.9985 93.9577 19.1336C93.9055 19.2687 93.8942 19.4162 93.9253 19.5577C93.9565 19.6992 94.0285 19.8284 94.1326 19.9291C94.2367 20.0299 94.3681 20.0978 94.5105 20.1243C94.653 20.1508 94.8 20.1348 94.9334 20.0783C95.0668 20.0217 95.1805 19.9272 95.2605 19.8064C95.3405 19.6856 95.383 19.5439 95.383 19.399C95.379 19.2007 95.2968 19.0119 95.1542 18.8739C95.0117 18.7359 94.8204 18.6599 94.6221 18.6623ZM94.6221 18.5509C94.7883 18.5572 94.949 18.6121 95.0842 18.709C95.2194 18.8059 95.3232 18.9405 95.3825 19.0959C95.4419 19.2513 95.4542 19.4208 95.418 19.5831C95.3818 19.7455 95.2985 19.8936 95.1788 20.0091C95.059 20.1245 94.9079 20.2022 94.7443 20.2324C94.5807 20.2626 94.4119 20.2441 94.2587 20.1791C94.1056 20.1141 93.975 20.0054 93.8831 19.8667C93.7913 19.728 93.7422 19.5654 93.7421 19.399C93.7466 19.17 93.8418 18.9521 94.0068 18.7931C94.1717 18.6341 94.393 18.547 94.6221 18.5509ZM81.6631 14.1858C81.4009 14.9821 81.091 16.2867 81.7115 16.991C82.1045 17.4109 82.6423 17.6658 83.2161 17.7042C83.6312 17.7484 84.4745 17.7733 85.1358 17.7609C85.1358 17.6703 87.4678 7.16091 91.0643 5.31804C91.4198 5.1361 92.2894 5.16377 91.7201 6.0271C88.7275 10.57 88.2515 13.1267 88.3041 14.8776C88.3553 16.5842 90.8297 18.8345 93.8431 16.6693C92.086 16.2715 92.425 14.9461 92.4755 14.7005C92.8532 13.3673 93.3792 12.0806 94.0437 10.8646C95.1097 8.74852 96.88 5.3886 96.1758 3.85702C95.5912 2.58416 94.3003 2.31091 92.9175 2.52121C91.4099 2.87329 90.0677 3.72939 89.1128 4.94794C89.1487 4.85455 89.1743 4.79506 89.1757 4.7916C89.4303 4.24579 89.7589 3.34372 89.3445 2.80967C89.1985 2.62333 89.0172 2.46764 88.8108 2.35154C88.6045 2.23544 88.3773 2.16122 88.1422 2.13313C87.3878 1.99225 86.61 2.0453 85.8817 2.2873C85.1534 2.5293 84.4985 2.95231 83.9784 3.51667C84.1521 3.51249 84.3241 3.55085 84.4795 3.62843C84.635 3.706 84.769 3.82042 84.8701 3.96171C84.9711 4.103 85.036 4.26687 85.0592 4.43901C85.0824 4.61116 85.0631 4.78635 85.003 4.94932C83.2922 9.52192 81.6949 14.0945 81.6652 14.1858H81.6631Z" fill="white"/>
<path d="M0.524359 9.8043C0.455985 9.80485 0.388164 9.79192 0.324795 9.76624C0.261426 9.74056 0.203741 9.70264 0.15504 9.65465C0.106339 9.60665 0.0675822 9.54952 0.0409767 9.48654C0.0143713 9.42355 0.000452437 9.35594 0 9.28756C0.000362178 9.21919 0.0142017 9.15155 0.0407234 9.08853C0.0672451 9.02551 0.105918 8.96833 0.154555 8.92027C0.203191 8.87221 0.260827 8.83421 0.324162 8.80845C0.387496 8.78268 0.455289 8.76965 0.523662 8.77011H3.66707C3.73544 8.76956 3.80324 8.78251 3.86661 8.80819C3.92998 8.83388 3.98767 8.87179 4.03637 8.91979C4.08507 8.96778 4.12385 9.02491 4.15045 9.0879C4.17706 9.15088 4.19098 9.21849 4.19143 9.28687C4.19051 9.4249 4.13485 9.55693 4.03666 9.65395C3.93847 9.75097 3.8058 9.80504 3.66777 9.8043H0.522965H0.524359ZM7.55828 14.204C7.53545 13.5627 7.55067 12.9214 7.54998 12.2802C7.54929 11.6389 7.54998 11.0128 7.54998 10.3792H7.55412C7.55412 9.11186 7.5396 7.84453 7.55897 6.57444C7.57797 6.12764 7.76135 5.70359 8.07392 5.38376C8.38648 5.06392 8.80618 4.87083 9.25242 4.84156C9.50463 4.81337 9.75994 4.83723 10.0026 4.91165C10.2452 4.98607 10.47 5.10947 10.663 5.27423C10.856 5.43899 11.0132 5.64158 11.1248 5.8695C11.2364 6.09743 11.3 6.34583 11.3118 6.59933C11.3167 6.67681 11.3215 6.75359 11.3215 6.83107C11.3215 9.21168 11.3215 11.5921 11.3215 13.9722C11.3445 14.3936 11.2229 14.8101 10.9768 15.153C10.7307 15.4958 10.375 15.7443 9.96841 15.8573C9.79208 15.9105 9.60887 15.9376 9.42467 15.9375C8.95003 15.9434 8.49132 15.7664 8.1436 15.4433C7.79588 15.1202 7.5858 14.6757 7.55688 14.2019L7.55828 14.204ZM0.173618 17.4947C0.0726196 16.3823 0.135577 15.2562 0.123817 14.1355C0.123817 13.8346 0.123817 13.533 0.123817 13.2313C0.121972 12.7376 0.314157 12.2628 0.658984 11.9094C1.00381 11.5559 1.47369 11.3521 1.96737 11.3417C2.46105 11.3314 2.93904 11.5154 3.29836 11.8541C3.65769 12.1928 3.86961 12.659 3.88844 13.1525C3.88844 13.1739 3.88844 13.1954 3.88844 13.2175C3.89882 14.361 3.88842 15.5052 3.89188 16.648C3.90447 17.8889 4.34051 19.0883 5.12779 20.0475C5.91507 21.0068 7.00639 21.6684 8.221 21.9227C9.02007 22.1066 9.85008 22.11 10.6506 21.9326C11.4511 21.7551 12.202 21.4014 12.8486 20.897C13.4951 20.3927 14.021 19.7506 14.388 19.0173C14.755 18.2841 14.9537 17.4782 14.9699 16.6584C14.9768 15.5073 14.9651 14.3555 14.9741 13.2044C14.9667 12.7785 15.1076 12.3634 15.3726 12.03C15.6376 11.6966 16.0103 11.4657 16.4268 11.3767C16.6924 11.3128 16.9687 11.3078 17.2365 11.3619C17.5042 11.416 17.7569 11.528 17.9768 11.6901C18.1967 11.8521 18.3786 12.0603 18.5096 12.3C18.6406 12.5397 18.7176 12.8052 18.7352 13.0778C18.7539 13.7495 18.7546 16.6584 18.6902 17.4359C18.5155 19.7042 17.4573 21.8131 15.7433 23.309C14.2151 24.7059 12.2604 25.5466 10.1953 25.695C9.92965 25.7176 9.6654 25.7289 9.40252 25.7289C7.11635 25.748 4.90484 24.9158 3.19853 23.3941C1.49221 21.8724 0.413204 19.7702 0.171549 17.4968L0.173618 17.4947ZM16.866 5.53193C16.4439 5.54458 16.0348 5.68131 15.6899 5.92507C15.345 6.16882 15.0795 6.50879 14.9267 6.90251C14.7739 7.29623 14.7404 7.72627 14.8305 8.13889C14.9206 8.55151 15.1303 8.92843 15.4334 9.22258C15.7364 9.51674 16.1195 9.71511 16.5346 9.79288C16.9497 9.87065 17.3785 9.82441 17.7675 9.6599C18.1565 9.4954 18.4884 9.21994 18.7218 8.86792C18.9552 8.5159 19.0797 8.10293 19.0797 7.68058C19.0756 7.39412 19.015 7.11127 18.9015 6.84821C18.788 6.58516 18.6237 6.34706 18.4181 6.14751C18.2126 5.94797 17.9697 5.79089 17.7033 5.68526C17.437 5.57964 17.1525 5.52754 16.866 5.53193Z" fill="white"/>
</svg>
